<?xml version="1.0" encoding="UTF-8" standalone="no"?>
<!DOCTYPE svg PUBLIC "-//W3C//DTD SVG 1.0//EN"
 "http://www.w3.org/TR/2001/REC-SVG-20010904/DTD/svg10.dtd" [
 <!ATTLIST svg xmlns:xlink CDATA #FIXED "http://www.w3.org/1999/xlink">
]>
<!-- Generated by dot version 1.13 (v16) (Mon August 23, 2004)
     For user: (shashi) Shashikant Penumarthy   Title: unix    Pages: 1 -->
<svg width="443pt" height="80pt"
 viewBox = "-1 -1 442 79"
 xmlns="http://www.w3.org/2000/svg" xmlns:xlink="http://www.w3.org/1999/xlink">
<g id="graph0" class="graph" transform = "scale(0.552430)"
 style="font-family:Times-Roman;font-size:14.00;">
<title>unix</title>
<text text-anchor="middle" x="396" y="128" style="font-family:Didot;">Testing SVG JQuery</text>
<g id="node1" class="node"><title>evCorpse</title>
<a xlink:href="javascript:alert(evCorpse)" xlink:title="corpse discovered">
<ellipse cx="69" cy="29" rx="62" ry="18" style="fill:none;stroke:black;"/>
<text text-anchor="middle" x="69" y="34">corpse discovered</text>
</a>
</g>
<g id="node2" class="node"><title>tkInvestigate</title>
<a xlink:href="http://www.google.com/search?q=investigate+complaint" xlink:title="investigate complaint">
<polygon style="fill:none;stroke:black;" points="307,11 171,11 171,47 307,47 307,11"/>
<text text-anchor="middle" x="239" y="34">investigate complaint</text>
</a>
</g>
<g id="edge2" class="edge"><title>evCorpse-&gt;tkInvestigate</title>
<path style="fill:none;stroke:darkgreen;" d="M133,29C142,29 151,29 161,29"/>
<polygon style="fill:darkgreen;stroke:darkgreen;" points="161,25 171,29 161,32 161,25"/>
</g>
<g id="node3" class="node"><title>tkAutopsy</title>
<a xlink:href="http://www.google.com/search?q=perform+autopsy" xlink:title="perform autopsy">
<polygon style="fill:none;stroke:black;" points="453,11 345,11 345,47 453,47 453,11"/>
<text text-anchor="middle" x="399" y="34">perform autopsy</text>
</a>
</g>
<g id="edge4" class="edge"><title>tkInvestigate-&gt;tkAutopsy</title>
<path style="fill:none;stroke:darkgreen;" d="M307,29C316,29 326,29 335,29"/>
<polygon style="fill:darkgreen;stroke:darkgreen;" points="335,25 345,29 335,32 335,25"/>
</g>
<g id="node4" class="node"><title>tkInvTerrLink</title>
<polygon style="fill:none;stroke:black;" points="785,11 567,11 567,47 785,47 785,11"/>
<text text-anchor="middle" x="676" y="34">investigate possible link to terrorism</text>
</g>
<g id="edge6" class="edge"><title>tkAutopsy-&gt;tkInvTerrLink</title>
<path style="fill:none;stroke:red;" d="M453,29C482,29 520,29 555,29"/>
<polygon style="fill:red;stroke:red;" points="555,25 565,29 555,32 555,25"/>
<text text-anchor="middle" x="509" y="26">no agreement</text>
</g>
</g>
</svg>
