<?xml version="1.0" encoding="UTF-8" standalone="no"?>
<!DOCTYPE svg PUBLIC "-//W3C//DTD SVG 1.0//EN"
 "http://www.w3.org/TR/2001/REC-SVG-20010904/DTD/svg10.dtd" [
 <!ATTLIST svg xmlns:xlink CDATA #FIXED "http://www.w3.org/1999/xlink">
]>
<!-- Generated by dot version 1.13 (v16) (Mon August 23, 2004)
     For user: (shashi) Shashikant Penumarthy   Title: states    Pages: 1 -->
<svg width="228pt" height="67pt"
 viewBox = "-1 -1 227 66"
 xmlns="http://www.w3.org/2000/svg" xmlns:xlink="http://www.w3.org/1999/xlink">
<g id="graph0" class="graph" transform = "scale(0.495413)"
 style="font-family:Times-Roman;font-size:14.00;">
<title>states</title>
<g id="node1" class="node"><title>jquery</title>
<a xlink:href="http://jquery.com/" xlink:title="jquery">
<ellipse cx="38" cy="92" rx="33" ry="18" style="fill:none;stroke:black;"/>
<text text-anchor="middle" x="38" y="97" style="font-family:Didot;">jquery</text>
</a>
</g>
<g id="node2" class="node"><title>graphviz</title>
<a xlink:href="http://www.graphviz.org/" xlink:title="graphviz">
<ellipse cx="147" cy="69" rx="39" ry="18" style="fill:none;stroke:black;"/>
<text text-anchor="middle" x="147" y="74" style="font-family:Didot;">graphviz</text>
</a>
</g>
<g id="edge4" class="edge"><title>jquery-&gt;graphviz</title>
<path style="fill:none;stroke:black;" d="M69,85C79,83 90,81 101,79"/>
<polygon style="fill:black;stroke:black;" points="101,76 111,77 102,82 101,76"/>
</g>
<g id="node4" class="node"><title>jquerysvgplugin</title>
<a xlink:href="http://keith-wood.name/svg.html" xlink:title="jquerysvgplugin">
<ellipse cx="377" cy="77" rx="62" ry="18" style="fill:none;stroke:black;"/>
<text text-anchor="middle" x="377" y="82" style="font-family:Didot;">jquerysvgplugin</text>
</a>
</g>
<g id="edge2" class="edge"><title>jquery-&gt;jquerysvgplugin</title>
<path style="fill:none;stroke:black;" d="M71,94C82,95 95,96 107,96 143,97 152,97 187,96 227,93 272,89 309,85"/>
<polygon style="fill:black;stroke:black;" points="309,82 319,84 309,88 309,82"/>
</g>
<g id="node3" class="node"><title>svg</title>
<a xlink:href="http://www.w3.org/Graphics/SVG/" xlink:title="svg">
<ellipse cx="250" cy="31" rx="27" ry="18" style="fill:none;stroke:black;"/>
<text text-anchor="middle" x="250" y="36" style="font-family:Didot;">svg</text>
</a>
</g>
<g id="edge8" class="edge"><title>graphviz-&gt;svg</title>
<path style="fill:none;stroke:black;" d="M178,58C190,53 204,48 217,43"/>
<polygon style="fill:black;stroke:black;" points="215,40 226,40 218,46 215,40"/>
</g>
<g id="edge6" class="edge"><title>graphviz-&gt;jquerysvgplugin</title>
<path style="fill:none;stroke:black;" d="M187,70C219,72 265,73 304,75"/>
<polygon style="fill:black;stroke:black;" points="304,71 314,75 304,78 304,71"/>
</g>
<g id="edge10" class="edge"><title>svg-&gt;jquerysvgplugin</title>
<path style="fill:none;stroke:black;" d="M274,40C289,45 309,52 327,59"/>
<polygon style="fill:black;stroke:black;" points="329,56 337,63 326,63 329,56"/>
</g>
</g>
</svg>
