<?xml version="1.0"?>
<!DOCTYPE svg PUBLIC "-//W3C//DTD SVG 1.1//EN" "http://www.w3.org/Graphics/SVG/1.1/DTD/svg11.dtd">
<svg xmlns="http://www.w3.org/2000/svg" xmlns:xl="http://www.w3.org/1999/xlink" version="1.1" viewBox="-11 101 607 544" width="607pt" height="544pt"><metadata xmlns:dc="http://purl.org/dc/elements/1.1/"><dc:date>2008-03-11 22:41Z</dc:date><!-- Produced by OmniGraffle Professional 5.0 --></metadata><defs><filter id="Shadow" filterUnits="userSpaceOnUse"><feGaussianBlur in="SourceAlpha" result="blur" stdDeviation="3.488"/><feOffset in="blur" result="offset" dx="0" dy="4"/><feFlood flood-color="black" flood-opacity=".75" result="flood"/><feComposite in="flood" in2="offset" operator="in"/></filter><marker orient="auto" overflow="visible" markerUnits="strokeWidth" id="FilledArrow_Marker" viewBox="-1 -4 10 8" markerWidth="10" markerHeight="8" color="black"><g><path d="M 8 0 L 0 -3 L 0 3 Z" fill="currentColor" stroke="currentColor" stroke-width="1"/></g></marker></defs><g stroke="none" stroke-opacity="1" stroke-dasharray="none" fill="none" fill-opacity="1"><title>Canvas 1</title><rect fill="white" width="587" height="733"/><g><title>Layer 1</title><g><use xl:href="#id1_Graphic" filter="url(#Shadow)"/><use xl:href="#id28_Graphic" filter="url(#Shadow)"/><use xl:href="#id4_Graphic" filter="url(#Shadow)"/><use xl:href="#id24_Graphic" filter="url(#Shadow)"/><use xl:href="#id13_Graphic" filter="url(#Shadow)"/><use xl:href="#id29_Graphic" filter="url(#Shadow)"/><use xl:href="#id30_Graphic" filter="url(#Shadow)"/><use xl:href="#id20_Graphic" filter="url(#Shadow)"/><use xl:href="#id26_Graphic" filter="url(#Shadow)"/><use xl:href="#id27_Graphic" filter="url(#Shadow)"/></g><g id="id1_Graphic"><rect x="270" y="261" width="54" height="36" fill="white"/><rect x="270" y="261" width="54" height="36" stroke="black" stroke-linecap="round" stroke-linejoin="round" stroke-width="1"/></g><g id="id28_Graphic"><ellipse cx="144" cy="243" rx="27.000046" ry="18.000042" fill="white"/><ellipse cx="144" cy="243" rx="27.000046" ry="18.000042" stroke="black" stroke-linecap="round" stroke-linejoin="round" stroke-width="1"/></g><g id="id4_Graphic"><path d="M 18 117 L 54 117 C 58.970562 117 63 121.029434 63 126 L 63 144 C 63 148.97057 58.970562 153 54 153 L 18 153 C 13.029437 153 9 148.97057 9 144 C 9 144 9 144 9 144 L 9 126 C 9 121.029434 13.029437 117 18 117 Z" fill="white"/><path d="M 18 117 L 54 117 C 58.970562 117 63 121.029434 63 126 L 63 144 C 63 148.97057 58.970562 153 54 153 L 18 153 C 13.029437 153 9 148.97057 9 144 C 9 144 9 144 9 144 L 9 126 C 9 121.029434 13.029437 117 18 117 Z" stroke="black" stroke-linecap="round" stroke-linejoin="round" stroke-width="1"/></g><g id="id24_Graphic"><path d="M 108 394.20001 L 115.2 387 L 154.8 387 L 162 394.20001 L 162 415.8 L 154.8 423 L 115.2 423 L 108 415.8 Z" fill="white"/><path d="M 108 394.20001 L 115.2 387 L 154.8 387 L 162 394.20001 L 162 415.8 L 154.8 423 L 115.2 423 L 108 415.8 Z" stroke="black" stroke-linecap="round" stroke-linejoin="round" stroke-width="1"/></g><g id="id13_Graphic"><path d="M 279 432 L 315 450 L 279 468 Z" fill="white"/><path d="M 279 432 L 315 450 L 279 468 Z" stroke="black" stroke-linecap="round" stroke-linejoin="round" stroke-width="1"/></g><g id="id29_Graphic"><ellipse cx="306" cy="603" rx="27.000069" ry="18.000046" fill="white"/><ellipse cx="306" cy="603" rx="27.000069" ry="18.000046" stroke="black" stroke-linecap="round" stroke-linejoin="round" stroke-width="1"/></g><g id="id30_Graphic"><path d="M 414 513 L 450 513 C 454.97055 513 459 517.02942 459 522 L 459 540 C 459 544.97058 454.97055 549 450 549 L 414 549 C 409.02945 549 405 544.97058 405 540 C 405 540 405 540 405 540 L 405 522 C 405 517.02942 409.02945 513 414 513 Z" fill="white"/><path d="M 414 513 L 450 513 C 454.97055 513 459 517.02942 459 522 L 459 540 C 459 544.97058 454.97055 549 450 549 L 414 549 C 409.02945 549 405 544.97058 405 540 C 405 540 405 540 405 540 L 405 522 C 405 517.02942 409.02945 513 414 513 Z" stroke="black" stroke-linecap="round" stroke-linejoin="round" stroke-width="1"/></g><g id="id20_Graphic"><path d="M 522 387 L 535.5 369 L 562.5 369 L 576 387 L 562.5 405 L 535.5 405 Z" fill="white"/><path d="M 522 387 L 535.5 369 L 562.5 369 L 576 387 L 562.5 405 L 535.5 405 Z" stroke="black" stroke-linecap="round" stroke-linejoin="round" stroke-width="1"/></g><g id="id26_Graphic"><path d="M 441 252 L 459 252 C 468 252 477 247.5 477 234 C 477 220.5 468 216 459 216 L 441 216 Z" fill="white"/><path d="M 441 252 L 459 252 C 468 252 477 247.5 477 234 C 477 220.5 468 216 459 216 L 441 216 Z" stroke="black" stroke-linecap="round" stroke-linejoin="round" stroke-width="1"/></g><g id="id27_Graphic"><path d="M 441 405 L 445.04126 417.43771 L 458.11902 417.43771 L 447.5389 425.1246 L 451.58014 437.56229 L 441 429.8754 L 430.41986 437.56229 L 434.4611 425.1246 L 423.88098 417.43771 L 436.95874 417.43771 Z" fill="white"/><path d="M 441 405 L 445.04126 417.43771 L 458.11902 417.43771 L 447.5389 425.1246 L 451.58014 437.56229 L 441 429.8754 L 430.41986 437.56229 L 434.4611 425.1246 L 423.88098 417.43771 L 436.95874 417.43771 Z" stroke="black" stroke-linecap="round" stroke-linejoin="round" stroke-width="1"/></g><line x1="269.5133" y1="272.53253" x2="179.59018" y2="251.37416" marker-end="url(#FilledArrow_Marker)" stroke="black" stroke-linecap="round" stroke-linejoin="round" stroke-width="1"/><line x1="128.66669" y1="227.66669" x2="61.353912" y2="160.35391" marker-end="url(#FilledArrow_Marker)" stroke="black" stroke-linecap="round" stroke-linejoin="round" stroke-width="1"/><path d="M 143.49345 261.49686 C 142.96851 280.66595 143.08585 298.17786 141.91844 319.00989 C 140.92021 336.82288 138.98212 357.07263 137.30983 376.63162" marker-end="url(#FilledArrow_Marker)" stroke="black" stroke-linecap="round" stroke-linejoin="round" stroke-width="1"/><path d="M 297.22192 297.49997 C 297.46384 317.669 297.9685 334.17444 297.94775 358.0131 C 297.92944 379.03021 297.50278 405.75845 297.20776 430.64227" marker-end="url(#FilledArrow_Marker)" stroke="black" stroke-linecap="round" stroke-linejoin="round" stroke-width="1"/><path d="M 297.65494 459.1891 C 299.15903 480.29279 300.92368 501.62183 302.16766 522.50647 C 303.21289 540.05444 303.89111 557.2976 304.6648 574.6183" marker-end="url(#FilledArrow_Marker)" stroke="black" stroke-linecap="round" stroke-linejoin="round" stroke-width="1"/><path d="M 278.51797 444.9049 L 226.58319 430.58752 L 172.0164 415.34204" marker-end="url(#FilledArrow_Marker)" stroke="black" stroke-linecap="round" stroke-linejoin="round" stroke-width="1"/><line x1="406.36542" y1="545.6483" x2="335.53067" y2="586.1253" marker-end="url(#FilledArrow_Marker)" stroke="black" stroke-linecap="round" stroke-linejoin="round" stroke-width="1"/><path d="M 305.4535 455.2494 C 322.35498 465.7448 339.31836 476.5921 356.16306 486.73883 C 370.14218 495.15942 384.04657 503.10175 397.96783 511.16034" marker-end="url(#FilledArrow_Marker)" stroke="black" stroke-linecap="round" stroke-linejoin="round" stroke-width="1"/><path d="M 535.0655 405.2228 C 521.43372 423.04971 508.7081 440.81094 494.16614 458.70883 C 481.64215 474.12305 467.7645 489.6466 454.28336 505.1365" marker-end="url(#FilledArrow_Marker)" stroke="black" stroke-linecap="round" stroke-linejoin="round" stroke-width="1"/><path d="M 468.55017 250.47337 L 502.71744 309.40936 L 532.9353 360.0683" marker-end="url(#FilledArrow_Marker)" stroke="black" stroke-linecap="round" stroke-linejoin="round" stroke-width="1"/><line x1="458.16113" y1="417.27963" x2="517.53363" y2="397.48877" marker-end="url(#FilledArrow_Marker)" stroke="black" stroke-linecap="round" stroke-linejoin="round" stroke-width="1"/><path d="M 324.483 271.64197 C 343.51718 266.54593 362.25375 261.73602 381.59125 256.3523 C 397.81473 251.83554 414.46936 246.91258 431.01083 242.09512" marker-end="url(#FilledArrow_Marker)" stroke="black" stroke-linecap="round" stroke-linejoin="round" stroke-width="1"/><line x1="310.58234" y1="447.4533" x2="423.25623" y2="426.32697" marker-end="url(#FilledArrow_Marker)" stroke="black" stroke-linecap="round" stroke-linejoin="round" stroke-width="1"/></g></g></svg>
