<?xml version="1.0"?>
<!DOCTYPE svg PUBLIC "-//W3C//DTD SVG 1.1//EN" "http://www.w3.org/Graphics/SVG/1.1/DTD/svg11.dtd">
<svg xmlns="http://www.w3.org/2000/svg" xmlns:xl="http://www.w3.org/1999/xlink" version="1.1" viewBox="112 102 352 537" width="352pt" height="537pt"><metadata xmlns:dc="http://purl.org/dc/elements/1.1/"><dc:date>2008-03-11 21:50Z</dc:date><!-- Produced by OmniGraffle Professional 5.0 --></metadata><defs><filter id="Shadow" filterUnits="userSpaceOnUse"><feGaussianBlur in="SourceAlpha" result="blur" stdDeviation="3.488"/><feOffset in="blur" result="offset" dx="0" dy="4"/><feFlood flood-color="black" flood-opacity=".75" result="flood"/><feComposite in="flood" in2="offset" operator="in"/></filter><marker orient="auto" overflow="visible" markerUnits="strokeWidth" id="FilledArrow_Marker" viewBox="-1 -4 10 8" markerWidth="10" markerHeight="8" color="black"><g><path d="M 8 0 L 0 -3 L 0 3 Z" fill="currentColor" stroke="currentColor" stroke-width="1"/></g></marker></defs><g stroke="none" stroke-opacity="1" stroke-dasharray="none" fill="none" fill-opacity="1"><title>Canvas 1</title><rect fill="white" width="576" height="733"/><g><title>Layer 1</title><g><use xl:href="#id1_Graphic" filter="url(#Shadow)"/><use xl:href="#id28_Graphic" filter="url(#Shadow)"/><use xl:href="#id4_Graphic" filter="url(#Shadow)"/><use xl:href="#id24_Graphic" filter="url(#Shadow)"/><use xl:href="#id13_Graphic" filter="url(#Shadow)"/><use xl:href="#id29_Graphic" filter="url(#Shadow)"/><use xl:href="#id30_Graphic" filter="url(#Shadow)"/><use xl:href="#id20_Graphic" filter="url(#Shadow)"/><use xl:href="#id26_Graphic" filter="url(#Shadow)"/><use xl:href="#id27_Graphic" filter="url(#Shadow)"/></g><g id="id1_Graphic"><rect x="278.51599" y="118.496" width="54" height="36" fill="white"/><rect x="278.51599" y="118.496" width="54" height="36" stroke="black" stroke-linecap="round" stroke-linejoin="round" stroke-width="1"/></g><g id="id28_Graphic"><ellipse cx="208.51601" cy="224.496" rx="27.000046" ry="18.000042" fill="white"/><ellipse cx="208.51601" cy="224.496" rx="27.000046" ry="18.000042" stroke="black" stroke-linecap="round" stroke-linejoin="round" stroke-width="1"/></g><g id="id4_Graphic"><path d="M 141.51601 314.496 L 177.51601 314.496 C 182.48657 314.496 186.51601 318.52545 186.51601 323.496 L 186.51601 341.496 C 186.51601 346.46655 182.48657 350.496 177.51601 350.496 L 141.51601 350.496 C 136.54544 350.496 132.51601 346.46655 132.51601 341.496 C 132.51601 341.496 132.51601 341.496 132.51601 341.496 L 132.51601 323.496 C 132.51601 318.52545 136.54544 314.496 141.51601 314.496 Z" fill="white"/><path d="M 141.51601 314.496 L 177.51601 314.496 C 182.48657 314.496 186.51601 318.52545 186.51601 323.496 L 186.51601 341.496 C 186.51601 346.46655 182.48657 350.496 177.51601 350.496 L 141.51601 350.496 C 136.54544 350.496 132.51601 346.46655 132.51601 341.496 C 132.51601 341.496 132.51601 341.496 132.51601 341.496 L 132.51601 323.496 C 132.51601 318.52545 136.54544 314.496 141.51601 314.496 Z" stroke="black" stroke-linecap="round" stroke-linejoin="round" stroke-width="1"/></g><g id="id24_Graphic"><path d="M 204.51601 321.69601 L 211.716 314.496 L 251.31601 314.496 L 258.51599 321.69601 L 258.51599 343.296 L 251.31601 350.496 L 211.716 350.496 L 204.51601 343.296 Z" fill="white"/><path d="M 204.51601 321.69601 L 211.716 314.496 L 251.31601 314.496 L 258.51599 321.69601 L 258.51599 343.296 L 251.31601 350.496 L 211.716 350.496 L 204.51601 343.296 Z" stroke="black" stroke-linecap="round" stroke-linejoin="round" stroke-width="1"/></g><g id="id13_Graphic"><path d="M 287.51599 206.496 L 323.516 224.496 L 287.51599 242.496 Z" fill="white"/><path d="M 287.51599 206.496 L 323.516 224.496 L 287.51599 242.496 Z" stroke="black" stroke-linecap="round" stroke-linejoin="round" stroke-width="1"/></g><g id="id29_Graphic"><ellipse cx="308.516" cy="596.49597" rx="27.000069" ry="18.000046" fill="white"/><ellipse cx="308.516" cy="596.49597" rx="27.000069" ry="18.000046" stroke="black" stroke-linecap="round" stroke-linejoin="round" stroke-width="1"/></g><g id="id30_Graphic"><path d="M 323.516 490.496 L 359.516 490.496 C 364.48654 490.496 368.516 494.52545 368.516 499.496 L 368.516 517.49597 C 368.516 522.46655 364.48654 526.49597 359.516 526.49597 L 323.516 526.49597 C 318.54544 526.49597 314.516 522.46655 314.516 517.49597 C 314.516 517.49597 314.516 517.49597 314.516 517.49597 L 314.516 499.496 C 314.516 494.52545 318.54544 490.496 323.516 490.496 Z" fill="white"/><path d="M 323.516 490.496 L 359.516 490.496 C 364.48654 490.496 368.516 494.52545 368.516 499.496 L 368.516 517.49597 C 368.516 522.46655 364.48654 526.49597 359.516 526.49597 L 323.516 526.49597 C 318.54544 526.49597 314.516 522.46655 314.516 517.49597 C 314.516 517.49597 314.516 517.49597 314.516 517.49597 L 314.516 499.496 C 314.516 494.52545 318.54544 490.496 323.516 490.496 Z" stroke="black" stroke-linecap="round" stroke-linejoin="round" stroke-width="1"/></g><g id="id20_Graphic"><path d="M 362.516 420.496 L 376.016 402.496 L 403.016 402.496 L 416.516 420.496 L 403.016 438.496 L 376.016 438.496 Z" fill="white"/><path d="M 362.516 420.496 L 376.016 402.496 L 403.016 402.496 L 416.516 420.496 L 403.016 438.496 L 376.016 438.496 Z" stroke="black" stroke-linecap="round" stroke-linejoin="round" stroke-width="1"/></g><g id="id26_Graphic"><path d="M 407.516 296.496 L 425.516 296.496 C 434.516 296.496 443.516 291.996 443.516 278.496 C 443.516 264.996 434.516 260.496 425.516 260.496 L 407.516 260.496 Z" fill="white"/><path d="M 407.516 296.496 L 425.516 296.496 C 434.516 296.496 443.516 291.996 443.516 278.496 C 443.516 264.996 434.516 260.496 425.516 260.496 L 407.516 260.496 Z" stroke="black" stroke-linecap="round" stroke-linejoin="round" stroke-width="1"/></g><g id="id27_Graphic"><path d="M 380.516 314.496 L 384.55725 326.93372 L 397.635 326.93372 L 387.0549 334.6206 L 391.09613 347.05829 L 380.516 339.3714 L 369.93585 347.05829 L 373.97708 334.6206 L 363.39697 326.93372 L 376.47473 326.93372 Z" fill="white"/><path d="M 380.516 314.496 L 384.55725 326.93372 L 397.635 326.93372 L 387.0549 334.6206 L 391.09613 347.05829 L 380.516 339.3714 L 369.93585 347.05829 L 373.97708 334.6206 L 363.39697 326.93372 L 376.47473 326.93372 Z" stroke="black" stroke-linecap="round" stroke-linejoin="round" stroke-width="1"/></g><line x1="285.30481" y1="154.831955" x2="232.20903" y2="203.00131" marker-end="url(#FilledArrow_Marker)" stroke="black" stroke-linecap="round" stroke-linejoin="round" stroke-width="1"/><line x1="200.49097" y1="242.18382" x2="171.97961" y2="305.02524" marker-end="url(#FilledArrow_Marker)" stroke="black" stroke-linecap="round" stroke-linejoin="round" stroke-width="1"/><line x1="212.41565" y1="242.80736" x2="225.51645" y2="304.3241" marker-end="url(#FilledArrow_Marker)" stroke="black" stroke-linecap="round" stroke-linejoin="round" stroke-width="1"/><line x1="305.516" y1="154.996" x2="305.516" y2="205.09601" marker-end="url(#FilledArrow_Marker)" stroke="black" stroke-linecap="round" stroke-linejoin="round" stroke-width="1"/><path d="M 303.53726 234.93004 C 297.93097 264.49255 289.55194 295.12805 286.71667 323.62646 C 283.88141 352.12488 286.55609 378.5044 286.52399 405.93756 C 286.49188 433.37073 283.47952 459.53976 286.52399 488.24194 C 289.242 513.86646 296.8146 541.52283 302.74008 568.48688" marker-end="url(#FilledArrow_Marker)" stroke="black" stroke-linecap="round" stroke-linejoin="round" stroke-width="1"/><line x1="295.85306" y1="238.59865" x2="249.72775" y2="305.91669" marker-end="url(#FilledArrow_Marker)" stroke="black" stroke-linecap="round" stroke-linejoin="round" stroke-width="1"/><line x1="334.59042" y1="526.9641" x2="318.7171" y2="569.29297" marker-end="url(#FilledArrow_Marker)" stroke="black" stroke-linecap="round" stroke-linejoin="round" stroke-width="1"/><path d="M 306.66635 233.44862 L 318.02057 321.81085 L 328.13007 401.15466 L 337.98434 480.1759" marker-end="url(#FilledArrow_Marker)" stroke="black" stroke-linecap="round" stroke-linejoin="round" stroke-width="1"/><line x1="379.45837" y1="438.9349" x2="356.31424" y2="481.36588" marker-end="url(#FilledArrow_Marker)" stroke="black" stroke-linecap="round" stroke-linejoin="round" stroke-width="1"/><line x1="420.82974" y1="296.98068" x2="396.63513" y2="392.41489" marker-end="url(#FilledArrow_Marker)" stroke="black" stroke-linecap="round" stroke-linejoin="round" stroke-width="1"/><line x1="381.32648" y1="340.42072" x2="386.61697" y2="392.14993" marker-end="url(#FilledArrow_Marker)" stroke="black" stroke-linecap="round" stroke-linejoin="round" stroke-width="1"/><path d="M 320.97845 154.87863 L 361.93784 203.57341 L 403.51245 252.56631" marker-end="url(#FilledArrow_Marker)" stroke="black" stroke-linecap="round" stroke-linejoin="round" stroke-width="1"/><line x1="310.44034" y1="231.58708" x2="370.59955" y2="318.2163" marker-end="url(#FilledArrow_Marker)" stroke="black" stroke-linecap="round" stroke-linejoin="round" stroke-width="1"/></g></g></svg>
