<?xml version="1.0" encoding="UTF-8" standalone="no"?>
<!-- Created with Inkscape (http://www.inkscape.org/) -->
<svg
   xmlns:dc="http://purl.org/dc/elements/1.1/"
   xmlns:cc="http://web.resource.org/cc/"
   xmlns:rdf="http://www.w3.org/1999/02/22-rdf-syntax-ns#"
   xmlns:svg="http://www.w3.org/2000/svg"
   xmlns="http://www.w3.org/2000/svg"
   xmlns:xlink="http://www.w3.org/1999/xlink"
   xmlns:sodipodi="http://inkscape.sourceforge.net/DTD/sodipodi-0.dtd"
   xmlns:inkscape="http://www.inkscape.org/namespaces/inkscape"
   width="1in"
   height="1in"
   id="svg1359"
   sodipodi:version="0.32"
   inkscape:version="0.43"
   version="1.0"
   sodipodi:docbase="/home/denis/workspace/channels/src/site/resources/images"
   sodipodi:docname="channels-logo.svg">
  <defs
     id="defs1361" />
  <sodipodi:namedview
     id="base"
     pagecolor="#ffffff"
     bordercolor="#666666"
     borderopacity="1.0"
     inkscape:pageopacity="0.0"
     inkscape:pageshadow="2"
     inkscape:zoom="4.6222222"
     inkscape:cx="45"
     inkscape:cy="56.564713"
     inkscape:document-units="px"
     inkscape:current-layer="layer1"
     inkscape:window-width="878"
     inkscape:window-height="587"
     inkscape:window-x="145"
     inkscape:window-y="105" />
  <metadata
     id="metadata1364">
    <rdf:RDF>
      <cc:Work
         rdf:about="">
        <dc:format>image/svg+xml</dc:format>
        <dc:type
           rdf:resource="http://purl.org/dc/dcmitype/StillImage" />
      </cc:Work>
    </rdf:RDF>
  </metadata>
  <g
     inkscape:label="Layer 1"
     inkscape:groupmode="layer"
     id="layer1">
    <g
       id="g2565"
       transform="matrix(1.444856,0,0,1.444856,-314.1499,-377.4212)">
      <g
         id="g2534">
        <g
           id="g4826"
           transform="matrix(0.106201,0,0,0.106201,221.4392,250.2453)">
          <path
             id="path4828"
             d="M 255.49779,185.23879 C 236.06029,196.45754 216.62279,207.67629 197.18529,218.89504 C 216.62279,230.11379 236.06029,241.33254 255.49779,252.55129 C 274.92487,241.33254 294.35196,230.11379 313.77904,218.89504 C 294.35196,207.67629 274.92487,196.45754 255.49779,185.23879 z "
             style="fill:#4c8021;fill-opacity:1;stroke:none" />
          <path
             id="path4830"
             d="M 195.18002,290.19401 C 214.61449,301.418 234.04896,312.642 253.48344,323.86599 C 253.48041,301.42325 253.47738,278.9805 253.47435,256.53776 C 234.04509,245.32279 214.61582,234.10781 195.18656,222.89284 C 195.18438,245.32656 195.1822,267.76029 195.18002,290.19401 z "
             style="fill:#89ab6c;fill-opacity:1;stroke:none" />
          <path
             id="path4832"
             d="M 315.76869,290.22107 C 315.77171,267.77833 315.77474,245.33558 315.77777,222.89284 C 296.3433,234.11683 276.90882,245.34083 257.47435,256.56482 C 257.47653,278.99854 257.47871,301.43227 257.48089,323.86599 C 276.91016,312.65102 296.33942,301.43604 315.76869,290.22107 z "
             style="fill:#c4d5b6;fill-opacity:1;stroke:none" />
        </g>
        <g
           id="g4834"
           transform="matrix(0.106201,0,0,0.106201,221.4392,280.4115)">
          <path
             id="path4836"
             d="M 255.49779,185.23879 C 236.06029,196.45754 216.62279,207.67629 197.18529,218.89504 C 216.62279,230.11379 236.06029,241.33254 255.49779,252.55129 C 274.92487,241.33254 294.35196,230.11379 313.77904,218.89504 C 294.35196,207.67629 274.92487,196.45754 255.49779,185.23879 z "
             style="fill:#4c8021;fill-opacity:1;stroke:none" />
          <path
             id="path4838"
             d="M 195.18002,290.19401 C 214.61449,301.418 234.04896,312.642 253.48344,323.86599 C 253.48041,301.42325 253.47738,278.9805 253.47435,256.53776 C 234.04509,245.32279 214.61582,234.10781 195.18656,222.89284 C 195.18438,245.32656 195.1822,267.76029 195.18002,290.19401 z "
             style="fill:#89ab6c;fill-opacity:1;stroke:none" />
          <path
             id="path4840"
             d="M 315.76869,290.22107 C 315.77171,267.77833 315.77474,245.33558 315.77777,222.89284 C 296.3433,234.11683 276.90882,245.34083 257.47435,256.56482 C 257.47653,278.99854 257.47871,301.43227 257.48089,323.86599 C 276.91016,312.65102 296.33942,301.43604 315.76869,290.22107 z "
             style="fill:#c4d5b6;fill-opacity:1;stroke:none" />
        </g>
        <g
           id="g4988"
           transform="matrix(0.106201,0,0,0.106201,234.7318,257.7869)">
          <path
             id="path4990"
             d="M 255.49779,185.23879 C 236.06029,196.45754 216.62279,207.67629 197.18529,218.89504 C 216.62279,230.11379 236.06029,241.33254 255.49779,252.55129 C 274.92487,241.33254 294.35196,230.11379 313.77904,218.89504 C 294.35196,207.67629 274.92487,196.45754 255.49779,185.23879 z "
             style="fill:#4c8021;fill-opacity:1;stroke:none" />
          <path
             id="path4992"
             d="M 195.18002,290.19401 C 214.61449,301.418 234.04896,312.642 253.48344,323.86599 C 253.48041,301.42325 253.47738,278.9805 253.47435,256.53776 C 234.04509,245.32279 214.61582,234.10781 195.18656,222.89284 C 195.18438,245.32656 195.1822,267.76029 195.18002,290.19401 z "
             style="fill:#89ab6c;fill-opacity:1;stroke:none" />
          <path
             id="path4994"
             d="M 315.76869,290.22107 C 315.77171,267.77833 315.77474,245.33558 315.77777,222.89284 C 296.3433,234.11683 276.90882,245.34083 257.47435,256.56482 C 257.47653,278.99854 257.47871,301.43227 257.48089,323.86599 C 276.91016,312.65102 296.33942,301.43604 315.76869,290.22107 z "
             style="fill:#c4d5b6;fill-opacity:1;stroke:none" />
        </g>
        <g
           id="g5004"
           transform="matrix(0.106201,0,0,0.106201,234.7318,272.87)">
          <path
             id="path5006"
             d="M 255.49779,185.23879 C 236.06029,196.45754 216.62279,207.67629 197.18529,218.89504 C 216.62279,230.11379 236.06029,241.33254 255.49779,252.55129 C 274.92487,241.33254 294.35196,230.11379 313.77904,218.89504 C 294.35196,207.67629 274.92487,196.45754 255.49779,185.23879 z "
             style="fill:#4c8021;fill-opacity:1;stroke:none" />
          <path
             id="path5008"
             d="M 195.18002,290.19401 C 214.61449,301.418 234.04896,312.642 253.48344,323.86599 C 253.48041,301.42325 253.47738,278.9805 253.47435,256.53776 C 234.04509,245.32279 214.61582,234.10781 195.18656,222.89284 C 195.18438,245.32656 195.1822,267.76029 195.18002,290.19401 z "
             style="fill:#89ab6c;fill-opacity:1;stroke:none" />
          <path
             id="path5010"
             d="M 315.76869,290.22107 C 315.77171,267.77833 315.77474,245.33558 315.77777,222.89284 C 296.3433,234.11683 276.90882,245.34083 257.47435,256.56482 C 257.47653,278.99854 257.47871,301.43227 257.48089,323.86599 C 276.91016,312.65102 296.33942,301.43604 315.76869,290.22107 z "
             style="fill:#c4d5b6;fill-opacity:1;stroke:none" />
        </g>
        <g
           id="g5014"
           transform="matrix(0.106201,0,0,0.106201,208.1468,257.7869)">
          <path
             id="path5016"
             d="M 255.49779,185.23879 C 236.06029,196.45754 216.62279,207.67629 197.18529,218.89504 C 216.62279,230.11379 236.06029,241.33254 255.49779,252.55129 C 274.92487,241.33254 294.35196,230.11379 313.77904,218.89504 C 294.35196,207.67629 274.92487,196.45754 255.49779,185.23879 z "
             style="fill:#4c8021;fill-opacity:1;stroke:none" />
          <path
             id="path5018"
             d="M 195.18002,290.19401 C 214.61449,301.418 234.04896,312.642 253.48344,323.86599 C 253.48041,301.42325 253.47738,278.9805 253.47435,256.53776 C 234.04509,245.32279 214.61582,234.10781 195.18656,222.89284 C 195.18438,245.32656 195.1822,267.76029 195.18002,290.19401 z "
             style="fill:#89ab6c;fill-opacity:1;stroke:none" />
          <path
             id="path5020"
             d="M 315.76869,290.22107 C 315.77171,267.77833 315.77474,245.33558 315.77777,222.89284 C 296.3433,234.11683 276.90882,245.34083 257.47435,256.56482 C 257.47653,278.99854 257.47871,301.43227 257.48089,323.86599 C 276.91016,312.65102 296.33942,301.43604 315.76869,290.22107 z "
             style="fill:#c4d5b6;fill-opacity:1;stroke:none" />
        </g>
        <g
           id="g5030"
           transform="matrix(0.106201,0,0,0.106201,208.1468,272.87)">
          <path
             id="path5032"
             d="M 255.49779,185.23879 C 236.06029,196.45754 216.62279,207.67629 197.18529,218.89504 C 216.62279,230.11379 236.06029,241.33254 255.49779,252.55129 C 274.92487,241.33254 294.35196,230.11379 313.77904,218.89504 C 294.35196,207.67629 274.92487,196.45754 255.49779,185.23879 z "
             style="fill:#4c8021;fill-opacity:1;stroke:none" />
          <path
             id="path5034"
             d="M 195.18002,290.19401 C 214.61449,301.418 234.04896,312.642 253.48344,323.86599 C 253.48041,301.42325 253.47738,278.9805 253.47435,256.53776 C 234.04509,245.32279 214.61582,234.10781 195.18656,222.89284 C 195.18438,245.32656 195.1822,267.76029 195.18002,290.19401 z "
             style="fill:#89ab6c;fill-opacity:1;stroke:none" />
          <path
             id="path5036"
             d="M 315.76869,290.22107 C 315.77171,267.77833 315.77474,245.33558 315.77777,222.89284 C 296.3433,234.11683 276.90882,245.34083 257.47435,256.56482 C 257.47653,278.99854 257.47871,301.43227 257.48089,323.86599 C 276.91016,312.65102 296.33942,301.43604 315.76869,290.22107 z "
             style="fill:#c4d5b6;fill-opacity:1;stroke:none" />
        </g>
      </g>
      <g
         transform="translate(4.199128e-3,-1.566663e-2)"
         id="g2560">
        <path
           style="fill:#4c8021;fill-opacity:1;fill-rule:evenodd;stroke:#452180;stroke-width:1px;stroke-linecap:butt;stroke-linejoin:miter;marker-end:none;stroke-opacity:1"
           d="M 248.56723,299.45913 L 248.56723,285.29644"
           id="path1474" />
        <use
           x="0"
           y="0"
           xlink:href="#path1474"
           id="use2530"
           transform="matrix(0.5,-0.866025,0.866025,0.5,-128.923,361.4544)"
           width="744.09448"
           height="1052.3622" />
        <use
           x="0"
           y="0"
           xlink:href="#path1474"
           id="use2532"
           transform="matrix(0.5,0.866025,-0.866025,0.5,377.4902,-69.07664)"
           width="744.09448"
           height="1052.3622" />
      </g>
    </g>
  </g>
</svg>
